<svg
  width="200"
  height="200"
  viewBox="0 0 200 200"
  fill="none"
  xmlns="http://www.w3.org/2000/svg"
>
  <defs>
    <linearGradient id="bgGrad" x1="0%" y1="0%" x2="100%" y2="100%">
      <stop offset="0%" stopColor="#FAA819" />
      <stop offset="100%" stopColor="#E8841A" />
    </linearGradient>
  </defs>

  <!-- Orange gradient circle -->
  <circle cx="100" cy="100" r="100" fill="url(#bgGrad)" />

  <!-- Infinity — WHITE color -->
  <path
    d="M100 100C100 100 76 72 56 72C38.3 72 24 86.3 24 100C24 113.7 38.3 128 56 128C76 128 100 100 100 100Z"
    stroke="#FFFFFF"
    strokeWidth="10"
    strokeLinecap="round"
    fill="none"
  />
  <path
    d="M100 100C100 100 124 72 144 72C161.7 72 176 86.3 176 100C176 113.7 161.7 128 144 128C124 128 100 100 100 100Z"
    stroke="#FFFFFF"
    strokeWidth="10"
    strokeLinecap="round"
    fill="none"
  />
</svg>
